BBnRG present... 

General
Complete name		: WALKING.TALL.BRRIP.BBnRG.avi
Format			: AVI
Format/Info		: Audio Video Interleave
File size			: 699 MiB
Duration			: 1h 14mn
Overall bit rate		: 1 319 Kbps
Writing library		: TMPGEnc 4.0 XPress Version. 4.7.4.299

Video
ID			: 0
Format			: MPEG-4 Visual
Format settings, BVOP	: 1
Format settings, QPel	: No
Format settings, GMC	: No warppoints
Format settings, Matrix          : Default (H.263)
Muxing mode		: Packed bitstream
Codec ID			: DX50
Codec ID/Hint		: DivX 5
Duration			: 1h 14mn
Bit rate			: 1 184 Kbps
Width			: 720 pixels
Height			: 480 pixels
Display aspect ratio		: 3:2
Frame rate		: 23.976 fps
Standard			: NTSC
Color space		: YUV
Chroma subsampling              : 4:2:0
Bit depth			: 8 bits
Scan type		: Progressive
Compression mode                : Lossy
Bits/(Pixel*Frame)		: 0.143
Stream size		: 627 MiB (90%)
Writing library		: DivX 6.8.5 (UTC 2009-08-20)

Audio
ID			: 1
Format			: MPEG Audio
Format version		: Version 1
Format profile		: Layer 3
Mode			: Joint stereo
Mode extension		: MS Stereo
Codec ID			: 55
Codec ID/Hint		: MP3
Duration			: 1h 14mn
Bit rate mode		: Constant
Bit rate			: 128 Kbps
Channel(s)		: 2 channels
Sampling rate		: 48.0 KHz
Compression mode                : Lossy
Stream size		: 67.8 MiB (10%)
Alignment			: Split accross interleaves
Interleave, duration		: 250 ms (5.99 video frames)
Interleave, preload duration    : 445 ms
Writing library		: LAME3.98.2

Actors

Michael Bowen 	... 	Sheriff Stan Watkins
Johnny Knoxville 	... 	Ray Templeton
Dwayne Johnson 	... 	Chris Vaughn
Neal McDonough 	... 	Jay Hamilton
Ashley Scott 	... 	Deni
John Beasley 	... 	Chris Vaughn Sr.
Barbara Tarbuck 	... 	Connie Vaughn
Kristen Wilson 	... 	Michelle Vaughn
Khleo Thomas 	... 	Pete Vaughn
Kevin Durand 	... 	Booth
Andrew Tarbet 	...           Jimmy
Patrick Gallagher 	...           Keith
John Stewart 	...           Rusty
Eric Breker 	...           Deputy Ralston
Ryan Robbins 	...           Travis

A former U.S. soldier returns to his hometown to find it overrun by crime and
corruption, which prompts him to clean house.

IMDB  http://www.imdb.com/title/tt0351977/
Trailer: http://www.imdb.com/video/screenplay/vi2258961689/
Rating 6.0/10

~Respect to~

Smile, Hoofa, Megarek, JWC, pjh20, Max, VaLe, Sleezy, BungalowBill, SAFCuk009, 
Xornof, Altezon, BusyLizzy, dylan85, KennyKern, mrssleezy

------------------------------------------------------------
 
Visit our site to download direct from our 100 Mbit seed-boxes
 
http://BitBitz.net